<mxfile host="app.diagrams.net" modified="2024-09-02T07:29:59.779Z" agent="Mozilla/5.0 (Macintosh; Intel Mac OS X 10_15_7) AppleWebKit/537.36 (KHTML, like Gecko) Chrome/127.0.0.0 Safari/537.36" version="24.6.3" etag="kQ9H7wZdsg0oNRQiXE-M" type="github">
  <diagram name="第 1 页" id="mQyt_E1c6toOVp6ySptK">
    <mxGraphModel>
      <root>
        <mxCell id="0" />
        <mxCell id="1" parent="0" />
      </root>
    </mxGraphModel>
  </diagram>
</mxfile>
